<?xml version="1.0" encoding="utf-8"?>
<!-- Generator: Adobe Illustrator 21.0.2, SVG Export Plug-In . SVG Version: 6.00 Build 0)  -->
<svg version="1.1" id="Capa_1" xmlns="http://www.w3.org/2000/svg" xmlns:xlink="http://www.w3.org/1999/xlink" x="0px" y="0px"
	 viewBox="0 0 180.7 185.9" style="enable-background:new 0 0 180.7 185.9;" xml:space="preserve">
<style type="text/css">
	.st0{fill:#FFFFFF;}
</style>
<g>
	<path class="st0" d="M103.1,113.7c-2-2-5.3-2-7.3,0c-7.2,7.2-19,7.2-26.2,0c-7.2-7.2-7.2-19,0-26.2c2-2,2-5.3,0-7.3
		c-2-2-5.3-2-7.3,0L29.6,113c-2,2-2,5.3,0,7.3c2,2,5.3,2,7.3,0L54,103.1c0.6,6.5,3.3,12.9,8.3,17.9c11.2,11.2,29.5,11.2,40.8,0
		C105.1,119,105.1,115.7,103.1,113.7z"/>
	<path class="st0" d="M77.6,72.2c2,2,5.3,2,7.3,0c7.2-7.2,19-7.2,26.2,0c7.2,7.2,7.2,19,0,26.2c-2,2-2,5.3,0,7.3c2,2,5.3,2,7.3,0
		l32.8-32.8c2-2,2-5.3,0-7.3c-2-2-5.3-2-7.3,0l-17.2,17.2c-0.6-6.5-3.3-12.9-8.3-17.9c-11.2-11.2-29.5-11.2-40.8,0
		C75.6,66.9,75.6,70.2,77.6,72.2z"/>
	<path class="st0" d="M153,147.9c-1.3,0-2.6-0.4-3.7-1.3c-2.6-2.1-3.1-5.9-1-8.5c10.2-13,15.6-28.6,15.6-45.1
		c0-40.5-32.9-73.4-73.4-73.4c-16.5,0-32.1,5.4-45.1,15.6c-2.6,2.1-6.5,1.6-8.5-1c-2.1-2.6-1.6-6.5,1-8.5
		C52.9,13.7,71.1,7.4,90.4,7.4c47.2,0,85.5,38.4,85.5,85.5c0,19.3-6.3,37.5-18.1,52.6C156.5,147.1,154.8,147.9,153,147.9z"/>
	<path class="st0" d="M90.4,178.5c-47.2,0-85.5-38.4-85.5-85.5c0-19.3,6.3-37.6,18.2-52.8c2.1-2.6,5.9-3.1,8.5-1
		c2.6,2.1,3.1,5.9,1,8.5C22.4,60.7,17,76.4,17,92.9c0,40.5,32.9,73.4,73.4,73.4c16.6,0,32.2-5.4,45.3-15.7c2.6-2.1,6.4-1.6,8.5,1
		c2.1,2.6,1.6,6.4-1,8.5C127.9,172.1,109.7,178.5,90.4,178.5z"/>
</g>
</svg>
